# xmcd
#
# Track frame offsets:
#	150
#	19176
#	32192
#	48711
#	63373
#	73425
#	94274
#	114967
#	134983
#	163564
#	178256
#	191070
#	209009
#	227337
#	244956
#	253563
#	267287
#	278139
#	289180
#	300594
#	306818
#	321642
#	333100
#
# Disc length: 4784 seconds
# Revision: 0
# Processed by: cddbd v1.5.2PL0 Copyright (c) Steve Scherf et al.
# Submitted via: dBpowerAMP V12.0
#
DISCID=6c12ae17
DTITLE=Various Artist - OLD and FAT: FAT Favorites 7 [CD7 of 27)
DYEAR=1979
DGENRE=Country
TTITLE0=Chuck Wagon and the Wheels - Disco Sucks
TTITLE1=Jill Croston - Nashville Lady Singer
TTITLE2=Steve Goodman - Door Number 3
TTITLE3=Bryan Bowers - Zen Gospel Singing
TTITLE4=Bobby Bare - Dropkick Me, Jesus
TTITLE5=The Goldcoast Singers - Plastic Jesus
TTITLE6=Father Guido Sarducci - What Happens to You After You Die
TTITLE7=National Lampoon - Deteriorata
TTITLE8=Jimmy Buffett - God's Own Drunk
TTITLE9=Red Clay Ramblers - The Ace
TTITLE10=Don Cohen - Crazy Gringo
TTITLE11=Montezuma's Revenge - Gringo
TTITLE12=California Zephyr - De Bluesky
TTITLE13=George Gritzbach - The Sweeper an' the Debutant
TTITLE14=Dave Gordon - You Gettin' Bothered Doesn't Marry Me
TTITLE15=Bobby Bare - Diet Song
TTITLE16=The Frank and Woody Show - One Less Jogger on the Road
TTITLE17=Monty Python's Flying Circus - Spam
TTITLE18=Bobby Bare - Food Blues
TTITLE19=Ray Stevens - Thus Cacked Henrietta
TTITLE20=Little Roger and the Goosebumps - Stairway to Gilligan's Island
TTITLE21=Steve Goodman - Talk Backwards (Sdrawkcab Klat)
TTITLE22=Chuck Wagon and the Wheels - Up Against the Wall, Rasta Mutha
EXTD=
EXTT0=
EXTT1=
EXTT2=
EXTT3=
EXTT4=
EXTT5=
EXTT6=
EXTT7=
EXTT8=
EXTT9=
EXTT10=
EXTT11=
EXTT12=
EXTT13=
EXTT14=
EXTT15=
EXTT16=
EXTT17=
EXTT18=
EXTT19=
EXTT20=
EXTT21=
EXTT22=
PLAYORDER=
